<svg xmlns="http://www.w3.org/2000/svg" width="1000" height="390" viewBox="0 0 1000 390" data-palette="568de6-7d6ae7-ace3f6-8f528d085ea1" role="img" aria-labelledby="hero-light-title hero-light-desc"><title id="hero-light-title">promptaudit</title><desc id="hero-light-desc">Inspect dependency text before an agent treats it as instruction.</desc><defs><linearGradient id="brand" gradientUnits="userSpaceOnUse" x2="1000" y2="390"><stop stop-color="#4571b9"/><stop offset=".6" stop-color="#7260d2"/><stop offset="1" stop-color="#5a7680"/></linearGradient><radialGradient id="halo"><stop stop-color="#4571b9" stop-opacity=".22"/><stop offset="1" stop-color="#f9fbfe" stop-opacity="0"/></radialGradient><filter id="glow"><feGaussianBlur stdDeviation="5"/></filter><pattern id="grid" width="40" height="40" patternUnits="userSpaceOnUse"><path d="M40 0H0V40" fill="none" stroke="#cbdcf7" stroke-opacity=".35" stroke-width=".6"/></pattern><marker id="arrow" viewBox="0 0 10 10" refX="8" refY="5" markerWidth="5" markerHeight="5" orient="auto"><path d="m1 1 7 4-7 4" fill="none" stroke="#4571b9" stroke-width="1.5"/></marker></defs><style>text{font-family:Arial,"Noto Sans",sans-serif}.flow{stroke-dasharray:10 110;animation:flow 6s linear infinite}.pulse{animation:pulse 5s ease-in-out infinite}.turn{transform-box:fill-box;transform-origin:center;animation:turn 36s linear infinite}@keyframes flow{to{stroke-dashoffset:-360}}@keyframes pulse{0%,100%{opacity:.45}50%{opacity:1}}@keyframes turn{to{transform:rotate(360deg)}}@media(prefers-reduced-motion:reduce){*{animation:none!important;transform:none!important}.flow{display:none}}</style><rect width="1000" height="390" rx="16" fill="#f9fbfe"/><rect width="1000" height="390" rx="16" fill="url(#grid)"/><ellipse cx="630.0" cy="167.7" rx="500.0" ry="273.0" fill="url(#halo)"/><circle cx="1073.94" cy="285.50" r="1.09" fill="#7260d2" opacity="0.68"/><circle cx="723.20" cy="417.84" r="1.41" fill="#4571b9" opacity="0.25"/><circle cx="762.50" cy="67.26" r="1.51" fill="#4571b9" opacity="0.38"/><circle cx="763.21" cy="310.13" r="1.02" fill="#7260d2" opacity="0.73"/><circle cx="754.57" cy="424.88" r="1.09" fill="#4571b9" opacity="0.51"/><circle cx="743.08" cy="328.60" r="1.18" fill="#4571b9" opacity="0.77"/><circle cx="788.09" cy="137.19" r="0.69" fill="#7260d2" opacity="0.53"/><circle cx="620.89" cy="347.26" r="0.82" fill="#4571b9" opacity="0.54"/><circle cx="966.47" cy="294.59" r="1.51" fill="#4571b9" opacity="0.80"/><circle cx="597.14" cy="222.25" r="0.84" fill="#7260d2" opacity="0.45"/><circle cx="902.43" cy="203.54" r="1.20" fill="#4571b9" opacity="0.56"/><circle cx="779.87" cy="297.04" r="0.75" fill="#4571b9" opacity="0.56"/><circle cx="774.13" cy="33.12" r="1.55" fill="#7260d2" opacity="0.56"/><circle cx="831.24" cy="429.85" r="1.21" fill="#4571b9" opacity="0.31"/><circle cx="1038.02" cy="338.14" r="1.28" fill="#4571b9" opacity="0.41"/><circle cx="569.86" cy="201.56" r="1.58" fill="#7260d2" opacity="0.55"/><circle cx="1075.91" cy="179.11" r="0.62" fill="#4571b9" opacity="0.61"/><circle cx="588.80" cy="148.85" r="0.92" fill="#4571b9" opacity="0.32"/><circle cx="910.38" cy="404.97" r="1.66" fill="#7260d2" opacity="0.51"/><circle cx="757.22" cy="22.54" r="0.96" fill="#4571b9" opacity="0.22"/><circle cx="602.53" cy="230.28" r="1.01" fill="#4571b9" opacity="0.63"/><circle cx="1019.72" cy="226.57" r="1.47" fill="#7260d2" opacity="0.73"/><circle cx="739.46" cy="131.18" r="1.06" fill="#4571b9" opacity="0.28"/><circle cx="987.02" cy="141.43" r="0.98" fill="#4571b9" opacity="0.57"/><circle cx="744.63" cy="294.51" r="1.50" fill="#7260d2" opacity="0.51"/><circle cx="977.21" cy="118.69" r="1.08" fill="#4571b9" opacity="0.74"/><circle cx="1068.72" cy="276.85" r="1.29" fill="#4571b9" opacity="0.75"/><circle cx="871.50" cy="61.96" r="0.92" fill="#7260d2" opacity="0.39"/><circle cx="1080.74" cy="248.57" r="1.44" fill="#4571b9" opacity="0.55"/><circle cx="951.28" cy="367.89" r="1.11" fill="#4571b9" opacity="0.65"/><circle cx="1067.00" cy="249.76" r="1.04" fill="#7260d2" opacity="0.26"/><circle cx="967.84" cy="108.70" r="1.01" fill="#4571b9" opacity="0.29"/><circle cx="619.40" cy="338.26" r="1.51" fill="#4571b9" opacity="0.28"/><circle cx="926.66" cy="379.80" r="1.59" fill="#7260d2" opacity="0.79"/><circle cx="1073.63" cy="284.25" r="0.66" fill="#4571b9" opacity="0.28"/><circle cx="601.36" cy="134.17" r="1.36" fill="#4571b9" opacity="0.42"/><circle cx="950.28" cy="246.24" r="0.96" fill="#7260d2" opacity="0.23"/><circle cx="1060.00" cy="233.86" r="0.64" fill="#4571b9" opacity="0.64"/><circle cx="795.88" cy="433.23" r="1.45" fill="#4571b9" opacity="0.74"/><circle cx="1069.12" cy="228.57" r="0.66" fill="#7260d2" opacity="0.62"/><circle cx="690.88" cy="83.87" r="1.69" fill="#4571b9" opacity="0.33"/><circle cx="970.97" cy="390.69" r="1.08" fill="#4571b9" opacity="0.61"/><circle cx="704.15" cy="409.19" r="1.17" fill="#7260d2" opacity="0.69"/><circle cx="1021.38" cy="291.99" r="0.86" fill="#4571b9" opacity="0.29"/><circle cx="887.38" cy="377.68" r="0.93" fill="#4571b9" opacity="0.70"/><circle cx="1078.38" cy="222.75" r="1.37" fill="#7260d2" opacity="0.23"/><circle cx="627.08" cy="227.16" r="1.51" fill="#4571b9" opacity="0.42"/><circle cx="629.73" cy="111.76" r="0.78" fill="#4571b9" opacity="0.74"/><circle cx="950.74" cy="383.64" r="1.34" fill="#7260d2" opacity="0.49"/><circle cx="674.08" cy="322.88" r="0.93" fill="#4571b9" opacity="0.47"/><circle cx="665.97" cy="354.89" r="1.18" fill="#4571b9" opacity="0.21"/><circle cx="877.83" cy="66.48" r="0.98" fill="#7260d2" opacity="0.60"/><circle cx="618.77" cy="291.03" r="0.96" fill="#4571b9" opacity="0.62"/><circle cx="875.69" cy="37.30" r="1.18" fill="#4571b9" opacity="0.53"/><circle cx="1020.68" cy="88.75" r="1.65" fill="#7260d2" opacity="0.50"/><circle cx="1034.73" cy="341.42" r="1.12" fill="#4571b9" opacity="0.27"/><circle cx="661.51" cy="255.67" r="0.93" fill="#4571b9" opacity="0.55"/><circle cx="570.22" cy="265.94" r="1.53" fill="#7260d2" opacity="0.74"/><circle cx="834.69" cy="384.62" r="1.32" fill="#4571b9" opacity="0.64"/><circle cx="1034.53" cy="340.21" r="0.62" fill="#4571b9" opacity="0.46"/><circle cx="702.80" cy="408.19" r="1.50" fill="#7260d2" opacity="0.75"/><circle cx="800.86" cy="431.73" r="1.50" fill="#4571b9" opacity="0.53"/><circle cx="785.06" cy="431.93" r="1.19" fill="#4571b9" opacity="0.66"/><circle cx="1067.59" cy="234.23" r="1.32" fill="#7260d2" opacity="0.23"/><circle cx="706.73" cy="320.65" r="0.85" fill="#4571b9" opacity="0.24"/><circle cx="582.08" cy="259.88" r="1.63" fill="#4571b9" opacity="0.62"/><circle cx="715.09" cy="114.86" r="0.87" fill="#7260d2" opacity="0.72"/><circle cx="692.78" cy="185.54" r="1.35" fill="#4571b9" opacity="0.70"/><circle cx="938.79" cy="133.32" r="1.46" fill="#4571b9" opacity="0.49"/><circle cx="923.24" cy="94.49" r="1.27" fill="#7260d2" opacity="0.36"/><circle cx="1026.78" cy="283.50" r="1.26" fill="#4571b9" opacity="0.20"/><circle cx="855.48" cy="413.41" r="1.22" fill="#4571b9" opacity="0.56"/><circle cx="988.35" cy="378.51" r="1.43" fill="#7260d2" opacity="0.28"/><circle cx="814.34" cy="369.78" r="0.89" fill="#4571b9" opacity="0.71"/><circle cx="830.32" cy="429.58" r="0.60" fill="#4571b9" opacity="0.22"/><circle cx="594.21" cy="264.98" r="1.63" fill="#7260d2" opacity="0.42"/><circle cx="1024.03" cy="329.29" r="1.42" fill="#4571b9" opacity="0.54"/><circle cx="887.94" cy="384.14" r="1.56" fill="#4571b9" opacity="0.31"/><circle cx="920.22" cy="382.10" r="1.26" fill="#7260d2" opacity="0.51"/><circle cx="913.78" cy="74.36" r="1.69" fill="#4571b9" opacity="0.63"/><circle cx="837.42" cy="75.31" r="1.31" fill="#4571b9" opacity="0.67"/><circle cx="1052.79" cy="317.20" r="0.91" fill="#7260d2" opacity="0.34"/><circle cx="912.63" cy="422.71" r="1.39" fill="#4571b9" opacity="0.44"/><circle cx="646.63" cy="246.37" r="1.49" fill="#4571b9" opacity="0.75"/><circle cx="969.11" cy="92.70" r="0.85" fill="#7260d2" opacity="0.67"/><circle cx="637.48" cy="346.03" r="1.48" fill="#4571b9" opacity="0.65"/><circle cx="648.15" cy="119.20" r="0.74" fill="#4571b9" opacity="0.52"/><circle cx="730.07" cy="376.61" r="0.80" fill="#7260d2" opacity="0.31"/><circle cx="633.19" cy="229.56" r="0.73" fill="#4571b9" opacity="0.35"/><circle cx="617.87" cy="330.98" r="0.66" fill="#4571b9" opacity="0.40"/><circle cx="784.30" cy="418.75" r="0.74" fill="#7260d2" opacity="0.74"/><circle cx="695.03" cy="146.28" r="1.04" fill="#4571b9" opacity="0.39"/><circle cx="992.10" cy="176.09" r="1.47" fill="#4571b9" opacity="0.50"/><circle cx="771.83" cy="406.83" r="1.61" fill="#7260d2" opacity="0.36"/><circle cx="648.29" cy="87.64" r="1.10" fill="#4571b9" opacity="0.48"/><circle cx="1000.60" cy="323.04" r="0.98" fill="#4571b9" opacity="0.36"/><circle cx="877.21" cy="71.13" r="1.59" fill="#7260d2" opacity="0.24"/><circle cx="904.19" cy="158.27" r="1.24" fill="#4571b9" opacity="0.71"/><circle cx="1078.57" cy="196.95" r="0.82" fill="#4571b9" opacity="0.55"/><circle cx="630.50" cy="308.44" r="1.14" fill="#7260d2" opacity="0.22"/><circle cx="605.14" cy="113.96" r="0.74" fill="#4571b9" opacity="0.72"/><circle cx="983.09" cy="170.58" r="1.27" fill="#4571b9" opacity="0.34"/><circle cx="631.96" cy="88.78" r="1.56" fill="#7260d2" opacity="0.42"/><circle cx="601.17" cy="192.78" r="1.46" fill="#4571b9" opacity="0.63"/><circle cx="826.00" cy="35.08" r="1.64" fill="#4571b9" opacity="0.43"/><circle cx="1075.28" cy="277.92" r="0.69" fill="#7260d2" opacity="0.79"/><circle cx="622.39" cy="254.47" r="1.18" fill="#4571b9" opacity="0.26"/><circle cx="996.29" cy="134.72" r="0.66" fill="#4571b9" opacity="0.65"/><circle cx="753.40" cy="293.92" r="1.21" fill="#7260d2" opacity="0.73"/><circle cx="758.73" cy="21.96" r="1.21" fill="#4571b9" opacity="0.63"/><circle cx="1056.88" cy="297.42" r="1.21" fill="#4571b9" opacity="0.39"/><circle cx="1069.67" cy="294.84" r="1.41" fill="#7260d2" opacity="0.33"/><circle cx="752.42" cy="424.13" r="0.93" fill="#4571b9" opacity="0.45"/><circle cx="674.86" cy="382.22" r="0.88" fill="#4571b9" opacity="0.45"/><circle cx="901.40" cy="133.05" r="0.73" fill="#7260d2" opacity="0.35"/><circle cx="1027.31" cy="279.91" r="1.13" fill="#4571b9" opacity="0.75"/><circle cx="587.29" cy="215.89" r="1.57" fill="#4571b9" opacity="0.58"/><circle cx="672.02" cy="390.21" r="1.68" fill="#7260d2" opacity="0.37"/><circle cx="710.51" cy="283.52" r="0.92" fill="#4571b9" opacity="0.76"/><circle cx="1056.26" cy="239.87" r="1.37" fill="#4571b9" opacity="0.32"/><circle cx="812.68" cy="299.41" r="1.30" fill="#7260d2" opacity="0.61"/><circle cx="1049.76" cy="127.05" r="0.75" fill="#4571b9" opacity="0.70"/><circle cx="1083.24" cy="207.15" r="0.89" fill="#4571b9" opacity="0.49"/><circle cx="587.01" cy="303.31" r="1.13" fill="#7260d2" opacity="0.72"/><circle cx="1015.77" cy="286.75" r="0.78" fill="#4571b9" opacity="0.76"/><circle cx="677.84" cy="374.14" r="1.26" fill="#4571b9" opacity="0.24"/><circle cx="621.88" cy="182.98" r="1.04" fill="#7260d2" opacity="0.37"/><circle cx="1024.58" cy="94.04" r="0.88" fill="#4571b9" opacity="0.59"/><circle cx="735.58" cy="28.00" r="0.63" fill="#4571b9" opacity="0.64"/><circle cx="965.08" cy="400.60" r="0.78" fill="#7260d2" opacity="0.53"/><circle cx="1037.39" cy="311.96" r="0.95" fill="#4571b9" opacity="0.28"/><circle cx="663.11" cy="383.59" r="1.39" fill="#4571b9" opacity="0.22"/><circle cx="824.34" cy="430.83" r="0.61" fill="#7260d2" opacity="0.75"/><circle cx="930.92" cy="90.06" r="1.14" fill="#4571b9" opacity="0.41"/><circle cx="822.29" cy="272.12" r="1.64" fill="#4571b9" opacity="0.56"/><circle cx="846.06" cy="192.90" r="0.89" fill="#7260d2" opacity="0.62"/><circle cx="837.20" cy="190.16" r="1.07" fill="#4571b9" opacity="0.73"/><circle cx="680.46" cy="73.08" r="0.67" fill="#4571b9" opacity="0.40"/><circle cx="806.89" cy="417.88" r="1.09" fill="#7260d2" opacity="0.63"/><circle cx="903.95" cy="327.21" r="1.26" fill="#4571b9" opacity="0.67"/><circle cx="712.01" cy="92.76" r="0.85" fill="#4571b9" opacity="0.63"/><circle cx="1073.29" cy="175.06" r="1.30" fill="#7260d2" opacity="0.55"/><circle cx="844.24" cy="197.82" r="1.04" fill="#4571b9" opacity="0.58"/><circle cx="1029.22" cy="321.32" r="1.37" fill="#4571b9" opacity="0.21"/><circle cx="1037.17" cy="103.66" r="1.14" fill="#7260d2" opacity="0.70"/><circle cx="866.53" cy="194.53" r="1.34" fill="#4571b9" opacity="0.34"/><circle cx="925.35" cy="34.57" r="1.06" fill="#4571b9" opacity="0.44"/><circle cx="857.17" cy="171.43" r="0.94" fill="#7260d2" opacity="0.62"/><circle cx="677.20" cy="341.63" r="1.26" fill="#4571b9" opacity="0.41"/><circle cx="818.22" cy="233.77" r="1.20" fill="#4571b9" opacity="0.70"/><circle cx="821.92" cy="20.08" r="1.61" fill="#7260d2" opacity="0.55"/><circle cx="866.60" cy="23.26" r="0.75" fill="#4571b9" opacity="0.39"/><circle cx="921.57" cy="404.06" r="0.63" fill="#4571b9" opacity="0.75"/><circle cx="605.55" cy="285.02" r="1.18" fill="#7260d2" opacity="0.55"/><circle cx="938.62" cy="409.46" r="0.75" fill="#4571b9" opacity="0.63"/><circle cx="866.65" cy="81.68" r="0.82" fill="#4571b9" opacity="0.44"/><circle cx="752.44" cy="151.56" r="1.06" fill="#7260d2" opacity="0.53"/><circle cx="763.24" cy="46.06" r="0.94" fill="#4571b9" opacity="0.55"/><circle cx="595.83" cy="143.91" r="0.61" fill="#4571b9" opacity="0.56"/><circle cx="981.47" cy="209.72" r="1.59" fill="#7260d2" opacity="0.31"/><circle cx="600.93" cy="209.49" r="1.46" fill="#4571b9" opacity="0.28"/><circle cx="875.17" cy="430.33" r="1.06" fill="#4571b9" opacity="0.36"/><circle cx="814.32" cy="405.57" r="0.85" fill="#7260d2" opacity="0.46"/><circle cx="694.55" cy="150.33" r="0.82" fill="#4571b9" opacity="0.61"/><circle cx="884.60" cy="21.65" r="1.00" fill="#4571b9" opacity="0.78"/><circle cx="1060.43" cy="136.33" r="0.95" fill="#7260d2" opacity="0.53"/><circle cx="1078.02" cy="177.28" r="1.67" fill="#4571b9" opacity="0.58"/><circle cx="837.06" cy="262.70" r="1.69" fill="#4571b9" opacity="0.28"/><circle cx="805.83" cy="432.12" r="1.69" fill="#7260d2" opacity="0.51"/><circle cx="744.93" cy="345.17" r="0.75" fill="#4571b9" opacity="0.45"/><circle cx="585.09" cy="305.12" r="0.79" fill="#4571b9" opacity="0.33"/><circle cx="930.56" cy="74.89" r="0.97" fill="#7260d2" opacity="0.50"/><circle cx="892.38" cy="368.84" r="1.67" fill="#4571b9" opacity="0.53"/><circle cx="651.37" cy="348.36" r="1.60" fill="#4571b9" opacity="0.49"/><circle cx="1041.61" cy="341.04" r="1.49" fill="#7260d2" opacity="0.43"/><circle cx="716.57" cy="177.00" r="0.62" fill="#4571b9" opacity="0.65"/><circle cx="915.35" cy="255.56" r="1.34" fill="#4571b9" opacity="0.65"/><circle cx="1035.45" cy="333.91" r="1.09" fill="#7260d2" opacity="0.69"/><circle cx="597.16" cy="147.02" r="0.98" fill="#4571b9" opacity="0.69"/><circle cx="932.14" cy="239.22" r="1.53" fill="#4571b9" opacity="0.79"/><circle cx="1061.01" cy="164.93" r="0.85" fill="#7260d2" opacity="0.77"/><circle cx="907.69" cy="373.94" r="1.35" fill="#4571b9" opacity="0.78"/><circle cx="700.36" cy="69.16" r="0.92" fill="#4571b9" opacity="0.62"/><circle cx="890.75" cy="29.01" r="1.40" fill="#7260d2" opacity="0.21"/><circle cx="1030.20" cy="96.58" r="0.85" fill="#4571b9" opacity="0.64"/><circle cx="616.47" cy="227.00" r="1.43" fill="#4571b9" opacity="0.79"/><circle cx="1060.24" cy="144.94" r="1.24" fill="#7260d2" opacity="0.70"/><circle cx="682.25" cy="273.37" r="1.33" fill="#4571b9" opacity="0.52"/><circle cx="700.56" cy="402.91" r="1.06" fill="#4571b9" opacity="0.42"/><circle cx="773.35" cy="280.05" r="0.82" fill="#7260d2" opacity="0.56"/><circle cx="595.70" cy="139.36" r="1.57" fill="#4571b9" opacity="0.74"/><circle cx="870.85" cy="370.94" r="1.20" fill="#4571b9" opacity="0.51"/><circle cx="836.11" cy="385.94" r="0.92" fill="#7260d2" opacity="0.35"/><circle cx="617.46" cy="277.05" r="1.08" fill="#4571b9" opacity="0.29"/><circle cx="583.72" cy="152.03" r="1.59" fill="#4571b9" opacity="0.56"/><circle cx="767.02" cy="215.43" r="0.93" fill="#7260d2" opacity="0.24"/><circle cx="839.92" cy="102.95" r="0.81" fill="#4571b9" opacity="0.41"/><circle cx="809.53" cy="434.61" r="0.77" fill="#4571b9" opacity="0.48"/><circle cx="801.98" cy="41.35" r="0.83" fill="#7260d2" opacity="0.70"/><circle cx="1070.32" cy="254.14" r="1.26" fill="#4571b9" opacity="0.71"/><circle cx="580.17" cy="282.59" r="1.66" fill="#4571b9" opacity="0.24"/><circle cx="830.43" cy="434.95" r="1.55" fill="#7260d2" opacity="0.30"/><circle cx="601.99" cy="117.23" r="1.59" fill="#4571b9" opacity="0.53"/><circle cx="965.27" cy="337.34" r="1.11" fill="#4571b9" opacity="0.64"/><circle cx="711.74" cy="40.08" r="1.03" fill="#7260d2" opacity="0.70"/><circle cx="797.79" cy="16.29" r="1.58" fill="#4571b9" opacity="0.46"/><circle cx="877.10" cy="326.83" r="1.29" fill="#4571b9" opacity="0.48"/><circle cx="963.58" cy="293.04" r="0.81" fill="#7260d2" opacity="0.30"/><circle cx="747.50" cy="393.60" r="0.81" fill="#4571b9" opacity="0.34"/><circle cx="744.81" cy="423.14" r="0.68" fill="#4571b9" opacity="0.69"/><circle cx="751.97" cy="95.85" r="1.17" fill="#7260d2" opacity="0.64"/><circle cx="1070.82" cy="201.12" r="1.59" fill="#4571b9" opacity="0.32"/><circle cx="677.18" cy="343.40" r="1.03" fill="#4571b9" opacity="0.49"/><circle cx="914.30" cy="196.41" r="1.45" fill="#7260d2" opacity="0.55"/><circle cx="1012.89" cy="204.85" r="1.57" fill="#4571b9" opacity="0.71"/><circle cx="817.73" cy="27.99" r="1.43" fill="#4571b9" opacity="0.23"/><circle cx="976.72" cy="310.96" r="0.65" fill="#7260d2" opacity="0.76"/><circle cx="763.48" cy="38.43" r="0.64" fill="#4571b9" opacity="0.79"/><circle cx="625.16" cy="232.62" r="1.62" fill="#4571b9" opacity="0.57"/><circle cx="711.45" cy="44.06" r="1.53" fill="#7260d2" opacity="0.25"/><circle cx="985.71" cy="83.18" r="1.55" fill="#4571b9" opacity="0.75"/><circle cx="949.69" cy="41.50" r="1.64" fill="#4571b9" opacity="0.58"/><circle cx="590.08" cy="246.36" r="1.12" fill="#7260d2" opacity="0.68"/><circle cx="663.97" cy="127.54" r="0.71" fill="#4571b9" opacity="0.71"/><circle cx="1078.79" cy="192.72" r="1.45" fill="#4571b9" opacity="0.75"/><circle cx="745.77" cy="294.89" r="1.66" fill="#7260d2" opacity="0.66"/><circle cx="661.68" cy="74.76" r="1.48" fill="#4571b9" opacity="0.26"/><circle cx="875.26" cy="281.27" r="1.37" fill="#4571b9" opacity="0.72"/><circle cx="585.91" cy="231.80" r="1.53" fill="#7260d2" opacity="0.26"/><circle cx="670.51" cy="348.05" r="1.33" fill="#4571b9" opacity="0.22"/><circle cx="719.78" cy="182.89" r="1.56" fill="#4571b9" opacity="0.53"/><circle cx="1020.13" cy="208.66" r="0.61" fill="#7260d2" opacity="0.34"/><circle cx="901.66" cy="64.76" r="1.57" fill="#4571b9" opacity="0.72"/><circle cx="949.07" cy="231.38" r="1.42" fill="#4571b9" opacity="0.51"/><circle cx="708.96" cy="188.20" r="1.26" fill="#7260d2" opacity="0.31"/><circle cx="628.06" cy="362.10" r="1.40" fill="#4571b9" opacity="0.26"/><circle cx="806.54" cy="217.54" r="0.78" fill="#4571b9" opacity="0.28"/><circle cx="574.51" cy="181.73" r="1.25" fill="#7260d2" opacity="0.24"/><circle cx="672.09" cy="394.38" r="0.91" fill="#4571b9" opacity="0.47"/><circle cx="837.63" cy="104.34" r="0.66" fill="#4571b9" opacity="0.46"/><circle cx="660.48" cy="99.58" r="1.39" fill="#7260d2" opacity="0.66"/><circle cx="1069.41" cy="210.34" r="1.20" fill="#4571b9" opacity="0.70"/><circle cx="576.95" cy="275.47" r="1.06" fill="#4571b9" opacity="0.32"/><circle cx="986.79" cy="310.86" r="1.27" fill="#7260d2" opacity="0.36"/><circle cx="642.16" cy="369.02" r="0.88" fill="#4571b9" opacity="0.38"/><circle cx="728.19" cy="415.48" r="0.94" fill="#4571b9" opacity="0.42"/><circle cx="773.89" cy="426.25" r="1.08" fill="#7260d2" opacity="0.41"/><circle cx="1062.97" cy="252.58" r="1.69" fill="#4571b9" opacity="0.36"/><circle cx="944.59" cy="369.28" r="0.99" fill="#4571b9" opacity="0.34"/><circle cx="1068.25" cy="178.07" r="1.64" fill="#7260d2" opacity="0.66"/><circle cx="688.19" cy="278.60" r="0.62" fill="#4571b9" opacity="0.22"/><circle cx="842.08" cy="422.66" r="0.74" fill="#4571b9" opacity="0.24"/><circle cx="841.48" cy="360.51" r="1.12" fill="#7260d2" opacity="0.63"/><circle cx="592.74" cy="220.98" r="1.35" fill="#4571b9" opacity="0.57"/><circle cx="740.01" cy="422.78" r="1.32" fill="#4571b9" opacity="0.36"/><circle cx="718.90" cy="272.92" r="0.97" fill="#7260d2" opacity="0.79"/><circle cx="1021.18" cy="226.79" r="0.92" fill="#4571b9" opacity="0.47"/><circle cx="977.97" cy="392.62" r="1.49" fill="#4571b9" opacity="0.51"/><circle cx="1030.65" cy="351.21" r="1.55" fill="#7260d2" opacity="0.28"/><circle cx="791.21" cy="215.72" r="0.95" fill="#4571b9" opacity="0.45"/><circle cx="1012.85" cy="129.87" r="0.72" fill="#4571b9" opacity="0.53"/><circle cx="782.49" cy="253.96" r="1.60" fill="#7260d2" opacity="0.25"/><circle cx="933.29" cy="36.60" r="1.28" fill="#4571b9" opacity="0.36"/><circle cx="869.47" cy="53.63" r="1.15" fill="#4571b9" opacity="0.77"/><circle cx="876.04" cy="47.26" r="1.04" fill="#7260d2" opacity="0.42"/><circle cx="782.06" cy="221.34" r="1.19" fill="#4571b9" opacity="0.54"/><circle cx="1015.71" cy="210.13" r="1.26" fill="#4571b9" opacity="0.64"/><circle cx="731.59" cy="178.16" r="1.02" fill="#7260d2" opacity="0.23"/><circle cx="605.99" cy="216.57" r="1.05" fill="#4571b9" opacity="0.59"/><circle cx="956.98" cy="54.25" r="1.11" fill="#4571b9" opacity="0.72"/><circle cx="631.84" cy="355.20" r="1.01" fill="#7260d2" opacity="0.51"/><circle cx="982.44" cy="383.92" r="0.63" fill="#4571b9" opacity="0.28"/><circle cx="842.00" cy="426.75" r="1.01" fill="#4571b9" opacity="0.73"/><circle cx="1002.06" cy="160.54" r="1.10" fill="#7260d2" opacity="0.46"/><circle cx="905.33" cy="78.77" r="0.82" fill="#4571b9" opacity="0.34"/><circle cx="1046.18" cy="176.89" r="0.82" fill="#4571b9" opacity="0.54"/><circle cx="692.68" cy="405.35" r="1.18" fill="#7260d2" opacity="0.31"/><circle cx="776.91" cy="319.66" r="1.26" fill="#4571b9" opacity="0.78"/><circle cx="1058.53" cy="169.42" r="1.21" fill="#4571b9" opacity="0.53"/><circle cx="997.66" cy="200.85" r="0.93" fill="#7260d2" opacity="0.23"/><circle cx="998.13" cy="74.82" r="0.75" fill="#4571b9" opacity="0.29"/><circle cx="661.18" cy="240.10" r="0.72" fill="#4571b9" opacity="0.21"/><circle cx="1074.93" cy="186.94" r="0.87" fill="#7260d2" opacity="0.70"/><circle cx="628.47" cy="357.93" r="0.81" fill="#4571b9" opacity="0.33"/><circle cx="777.99" cy="62.09" r="0.92" fill="#4571b9" opacity="0.57"/><circle cx="724.89" cy="382.82" r="1.02" fill="#7260d2" opacity="0.30"/><circle cx="834.48" cy="426.97" r="0.67" fill="#4571b9" opacity="0.70"/><circle cx="790.03" cy="61.04" r="1.59" fill="#4571b9" opacity="0.52"/><circle cx="825.96" cy="15.81" r="0.94" fill="#7260d2" opacity="0.55"/><circle cx="872.65" cy="108.45" r="0.68" fill="#4571b9" opacity="0.38"/><circle cx="1039.48" cy="151.91" r="1.08" fill="#4571b9" opacity="0.45"/><circle cx="1062.68" cy="285.70" r="1.42" fill="#7260d2" opacity="0.50"/><circle cx="575.64" cy="271.52" r="1.13" fill="#4571b9" opacity="0.22"/><circle cx="698.88" cy="47.09" r="0.67" fill="#4571b9" opacity="0.39"/><circle cx="702.21" cy="40.14" r="1.19" fill="#7260d2" opacity="0.23"/><circle cx="706.13" cy="45.14" r="1.14" fill="#4571b9" opacity="0.37"/><circle cx="672.27" cy="62.91" r="1.69" fill="#4571b9" opacity="0.33"/><circle cx="1000.19" cy="183.32" r="0.63" fill="#7260d2" opacity="0.65"/><circle cx="711.33" cy="256.54" r="0.80" fill="#4571b9" opacity="0.74"/><circle cx="1024.60" cy="186.70" r="1.21" fill="#4571b9" opacity="0.24"/><circle cx="622.05" cy="254.53" r="1.08" fill="#7260d2" opacity="0.35"/><circle cx="802.32" cy="113.70" r="1.27" fill="#4571b9" opacity="0.25"/><circle cx="604.37" cy="142.47" r="0.68" fill="#4571b9" opacity="0.21"/><circle cx="1016.43" cy="256.20" r="0.78" fill="#7260d2" opacity="0.69"/><circle cx="993.37" cy="192.71" r="0.99" fill="#4571b9" opacity="0.69"/><circle cx="841.30" cy="28.67" r="1.67" fill="#4571b9" opacity="0.40"/><circle cx="769.63" cy="410.96" r="0.63" fill="#7260d2" opacity="0.63"/><circle cx="901.45" cy="307.04" r="0.91" fill="#4571b9" opacity="0.69"/><circle cx="778.71" cy="24.19" r="1.56" fill="#4571b9" opacity="0.48"/><circle cx="1012.74" cy="253.28" r="1.09" fill="#7260d2" opacity="0.32"/><circle cx="1010.12" cy="203.25" r="1.23" fill="#4571b9" opacity="0.39"/><circle cx="787.04" cy="412.51" r="1.35" fill="#4571b9" opacity="0.37"/><circle cx="943.83" cy="409.19" r="1.03" fill="#7260d2" opacity="0.75"/><circle cx="805.64" cy="412.91" r="1.51" fill="#4571b9" opacity="0.38"/><circle cx="915.55" cy="262.67" r="1.31" fill="#4571b9" opacity="0.44"/><circle cx="768.01" cy="169.43" r="1.48" fill="#7260d2" opacity="0.78"/><circle cx="969.59" cy="206.10" r="0.93" fill="#4571b9" opacity="0.39"/><circle cx="953.88" cy="64.74" r="1.35" fill="#4571b9" opacity="0.22"/><circle cx="622.36" cy="180.31" r="1.16" fill="#7260d2" opacity="0.76"/><circle cx="840.77" cy="364.86" r="1.12" fill="#4571b9" opacity="0.78"/><circle cx="877.13" cy="356.01" r="1.06" fill="#4571b9" opacity="0.44"/><circle cx="883.49" cy="22.01" r="0.71" fill="#7260d2" opacity="0.45"/><circle cx="769.73" cy="282.95" r="1.09" fill="#4571b9" opacity="0.50"/><circle cx="848.36" cy="51.76" r="1.24" fill="#4571b9" opacity="0.47"/><circle cx="856.68" cy="430.01" r="1.21" fill="#7260d2" opacity="0.42"/><circle cx="973.43" cy="306.30" r="1.53" fill="#4571b9" opacity="0.28"/><circle cx="586.56" cy="306.16" r="0.85" fill="#4571b9" opacity="0.55"/><circle cx="684.85" cy="61.60" r="1.19" fill="#7260d2" opacity="0.65"/><circle cx="710.51" cy="413.52" r="0.86" fill="#4571b9" opacity="0.30"/><circle cx="968.28" cy="88.51" r="0.69" fill="#4571b9" opacity="0.61"/><circle cx="697.78" cy="109.70" r="0.84" fill="#7260d2" opacity="0.50"/><circle cx="609.22" cy="114.97" r="1.06" fill="#4571b9" opacity="0.50"/><circle cx="1008.09" cy="359.35" r="1.04" fill="#4571b9" opacity="0.59"/><circle cx="1053.61" cy="211.12" r="1.61" fill="#7260d2" opacity="0.37"/><circle cx="851.18" cy="419.68" r="1.04" fill="#4571b9" opacity="0.32"/><circle cx="1055.81" cy="319.16" r="1.56" fill="#4571b9" opacity="0.39"/><circle cx="977.32" cy="273.85" r="1.16" fill="#7260d2" opacity="0.38"/><circle cx="660.31" cy="100.67" r="1.28" fill="#4571b9" opacity="0.61"/><circle cx="648.12" cy="370.17" r="1.57" fill="#4571b9" opacity="0.50"/><circle cx="1021.77" cy="329.85" r="0.60" fill="#7260d2" opacity="0.24"/><circle cx="984.73" cy="147.72" r="0.86" fill="#4571b9" opacity="0.35"/><circle cx="1021.50" cy="165.00" r="1.22" fill="#4571b9" opacity="0.76"/><circle cx="814.19" cy="400.67" r="1.38" fill="#7260d2" opacity="0.22"/><circle cx="1044.54" cy="193.43" r="1.31" fill="#4571b9" opacity="0.21"/><circle cx="1068.35" cy="197.66" r="0.79" fill="#4571b9" opacity="0.48"/><circle cx="581.08" cy="159.90" r="0.73" fill="#7260d2" opacity="0.41"/><circle cx="864.56" cy="429.95" r="1.04" fill="#4571b9" opacity="0.72"/><circle cx="721.25" cy="321.34" r="1.19" fill="#4571b9" opacity="0.29"/><circle cx="1054.02" cy="289.28" r="1.13" fill="#7260d2" opacity="0.52"/><circle cx="1049.63" cy="289.50" r="1.35" fill="#4571b9" opacity="0.77"/><circle cx="798.25" cy="147.72" r="1.14" fill="#4571b9" opacity="0.70"/><circle cx="764.93" cy="74.55" r="1.04" fill="#7260d2" opacity="0.45"/><circle cx="699.14" cy="260.49" r="0.82" fill="#4571b9" opacity="0.27"/><circle cx="1041.22" cy="183.68" r="0.79" fill="#4571b9" opacity="0.26"/><circle cx="752.03" cy="108.17" r="0.72" fill="#7260d2" opacity="0.32"/><circle cx="892.06" cy="419.96" r="1.54" fill="#4571b9" opacity="0.37"/><circle cx="966.14" cy="400.20" r="1.23" fill="#4571b9" opacity="0.57"/><circle cx="586.70" cy="142.93" r="0.94" fill="#7260d2" opacity="0.71"/><circle cx="690.95" cy="137.18" r="1.46" fill="#4571b9" opacity="0.65"/><circle cx="753.00" cy="272.24" r="0.86" fill="#4571b9" opacity="0.57"/><text x="48" y="56" fill="#556988" font-size="13" text-anchor="start" font-weight="400">PROJECT / OPEN SOURCE</text><text x="48" y="182" font-size="74.0" fill="url(#brand)" font-weight="700">promptaudit</text><text x="50" y="242.0" fill="#131d30" font-size="24" text-anchor="start" font-weight="400">Inspect dependency text before an</text><text x="50" y="275.6" fill="#131d30" font-size="24" text-anchor="start" font-weight="400">agent treats it as instruction.</text><path d="M656.0 309.0L762.6 193.5L864.0 235.5L975.8 120.0" fill="none" stroke="#4571b9" stroke-width="1.5" marker-end="url(#arrow)"/><path d="M656.0 309.0L762.6 193.5L864.0 235.5L975.8 120.0" class="flow" fill="none" stroke="#5a7680" stroke-width="2"/><circle cx="656.0" cy="309.0" r="12" fill="#5a7680" opacity=".5" filter="url(#glow)"/><circle class="pulse" cx="656.0" cy="309.0" r="3" fill="#5a7680"/><circle cx="762.6" cy="193.5" r="12" fill="#5a7680" opacity=".5" filter="url(#glow)"/><circle class="pulse" cx="762.6" cy="193.5" r="3" fill="#5a7680"/><circle cx="864.0" cy="235.5" r="12" fill="#5a7680" opacity=".5" filter="url(#glow)"/><circle class="pulse" cx="864.0" cy="235.5" r="3" fill="#5a7680"/><circle cx="975.8" cy="120.0" r="12" fill="#5a7680" opacity=".5" filter="url(#glow)"/><circle class="pulse" cx="975.8" cy="120.0" r="3" fill="#5a7680"/></svg>
